<?xml version="1.0" encoding="utf-8"?>
<!-- Generator: Adobe Illustrator 22.1.0, SVG Export Plug-In . SVG Version: 6.00 Build 0)  -->
<svg version="1.1" xmlns="http://www.w3.org/2000/svg" xmlns:xlink="http://www.w3.org/1999/xlink" x="0px" y="0px"
	 viewBox="0 0 864 864" style="enable-background:new 0 0 864 864;" xml:space="preserve">
<style type="text/css">
	.st0{fill:#FFFFFF;}
	.st1{fill:#FFFFFF;}
</style>
<g>
	<path class="st0" d="M134.2,330.5c0,16-13,29-29,29c-16,0-29-13-29-29c0-16,13-29,29-29C121.1,301.5,134.2,314.5,134.2,330.5"/>
	<path class="st1" d="M223.2,404c13.4,0,21.5,7.2,25.5,18.3h52.1c-8.3-38.1-36.6-60.1-76.7-60.1c-46.9,0-80.1,31.8-80.1,82.1
		c0,50.6,33.2,82.1,80.1,82.1c40.1,0,68.4-23.2,76.7-60.1h-52.1c-4.3,11.7-12,18.3-25.5,18.3c-17.5,0-29.5-13.7-29.5-40.3
		C193.7,417.8,205.7,404,223.2,404"/>
	<path class="st1" d="M699.4,410.9c0-7.7,6.3-12.3,17.7-12.3c13.7,0,22,7.2,23.5,18h45.2c-3.2-31.5-26-54.4-67.3-54.4
		c-41.8,0-65,22.3-65,49.5c0,58.7,87,40.1,87,65.8c0,7.2-6.6,12.9-19.2,12.9c-13.4,0-23.5-7.4-24.6-18.6h-48.4
		c2.3,30.9,30.9,54.7,73.5,54.7c40.1,0,64.7-20.9,64.7-48.6C785.8,418.3,699.4,436.4,699.4,410.9"/>
	<path class="st1" d="M105.1,374c-9.1,0-17.5-2.8-24.5-7.6v157.8h48.9V366.4C122.6,371.2,114.2,374,105.1,374"/>
	<rect x="309.6" y="364.5" class="st1" width="48.9" height="159.7"/>
	<path class="st1" d="M574.9,362.8c-23.2,0-43.2,12.9-53.8,29.8c-10.9-19.2-30.3-29.8-54.4-29.8c-20.9,0-37.2,8.9-46.6,21.7v-20
		h-48.9v159.7H420v-86.7c0-20.9,12-32.3,30.6-32.3c18.6,0,30.6,11.4,30.6,32.3v86.7h48.6v-86.7c0-20.9,12-32.3,30.6-32.3
		s30.6,11.4,30.6,32.3v86.7h48.6v-93.3C639.8,388,614.3,362.8,574.9,362.8"/>
	<path class="st1" d="M792.2,404.2c0-6.9,4.9-12.1,11.9-12.1c7,0,11.9,5.2,11.9,12.1c0,6.9-4.9,12.2-11.9,12.2
		C797.1,416.3,792.2,411.1,792.2,404.2 M793.9,404.2c0,6,4,10.6,10.1,10.6c6.1,0,10.2-4.5,10.2-10.6c0-6-4.1-10.5-10.2-10.5
		C798,393.7,793.9,398.1,793.9,404.2 M805.7,405.2l4,5.6l-2.3,0.1l-3.9-5.6h-1.9v5.6h-2v-13.3h5.5c2.6,0,4.3,1.4,4.3,3.9
		C809.4,403.5,807.9,405,805.7,405.2 M801.6,399.3v4.3h3.3c1.5,0,2.5-0.6,2.5-2.2c0-1.5-1.1-2.1-2.5-2.1H801.6z"/>
</g>
</svg>
